<?xml version="1.0" encoding="UTF-8" standalone="no"?><!DOCTYPE svg PUBLIC "-//W3C//DTD SVG 1.1//EN" "http://www.w3.org/Graphics/SVG/1.1/DTD/svg11.dtd"><svg width="100%" height="100%" viewBox="0 0 159 81" version="1.1" xmlns="http://www.w3.org/2000/svg" xmlns:xlink="http://www.w3.org/1999/xlink" xml:space="preserve" xmlns:serif="http://www.serif.com/" style="fill-rule:evenodd;clip-rule:evenodd;stroke-linejoin:round;stroke-miterlimit:1.41421;"><g><path d="M128.05,0.804l-100,0l0,10c0,13.261 5.268,25.979 14.644,35.355c9.377,9.377 22.095,14.645 35.356,14.645l0,0c27.614,0 50,-22.386 50,-50c0,-5.97 0,-10 0,-10Z" style="fill:#444;"/><path d="M138.05,40.804c11.045,0 20,-8.954 20,-20c0,-11.046 -8.955,-20 -20,-20l0,10c5.523,0 10,4.477 10,10c0,5.523 -4.477,10 -10,10l0,10Z" style="fill:#444;"/><rect x="28.05" y="70.804" width="100" height="10" style="fill:#444;"/></g></svg>