<?xml version="1.0" encoding="UTF-8" standalone="no"?><!DOCTYPE svg PUBLIC "-//W3C//DTD SVG 1.1//EN" "http://www.w3.org/Graphics/SVG/1.1/DTD/svg11.dtd"><svg width="100%" height="100%" viewBox="0 0 56 23" version="1.1" xmlns="http://www.w3.org/2000/svg" xmlns:xlink="http://www.w3.org/1999/xlink" xml:space="preserve" xmlns:serif="http://www.serif.com/" style="fill-rule:evenodd;clip-rule:evenodd;stroke-linejoin:round;stroke-miterlimit:1.41421;"><g><path d="M20.117,1.178l-5.596,0l-4.089,8.301l-4.089,-8.301l-5.596,0l7.225,13.251l0,8.27l4.92,0l0,-8.27l7.225,-13.251Z" style="fill:#444;fill-rule:nonzero;"/><path d="M25.476,22.699c4.52,0 8.148,-3.535 8.148,-8.116c0,-4.581 -3.628,-8.117 -8.148,-8.117c-4.519,0 -8.147,3.536 -8.147,8.117c0,4.581 3.628,8.116 8.147,8.116Zm0,-4.488c-1.998,0 -3.536,-1.445 -3.536,-3.628c0,-2.183 1.538,-3.628 3.536,-3.628c1.999,0 3.536,1.445 3.536,3.628c0,2.183 -1.537,3.628 -3.536,3.628Z" style="fill:#444;fill-rule:nonzero;"/><path d="M45.7,5.175l0,-4.428c-5.103,-0.307 -7.471,2.275 -7.471,6.58l-2.06,0l0,4.427l2.06,0l0,10.945l4.612,0l0,-10.945l2.859,0l0,-4.427l-2.859,0c0,-1.783 1.138,-2.306 2.859,-2.152Z" style="fill:#444;fill-rule:nonzero;"/><path d="M52.378,5.974c1.507,0 2.768,-1.261 2.768,-2.767c0,-1.507 -1.261,-2.767 -2.768,-2.767c-1.506,0 -2.767,1.26 -2.767,2.767c0,1.506 1.261,2.767 2.767,2.767Zm-2.305,16.725l4.611,0l0,-15.372l-4.611,0l0,15.372Z" style="fill:#444;fill-rule:nonzero;"/></g></svg>